<svg width="40" height="39" viewBox="0 0 40 39" fill="none" xmlns="http://www.w3.org/2000/svg">
<g clip-path="url(#clip0_428_549)">
<path d="M25.9184 21.1187L22.5683 24.3961C21.2098 25.7253 18.8195 25.7539 17.4316 24.3961L14.0813 21.1187L2.04883 32.8885C2.49672 33.0904 2.99055 33.2109 3.51555 33.2109H36.4843C37.0093 33.2109 37.503 33.0906 37.9507 32.8886L25.9184 21.1187Z" fill="white"/>
<path d="M36.4841 5.78906H3.51539C2.99039 5.78906 2.49656 5.90957 2.04883 6.1115L14.9064 18.6892C14.9073 18.6901 14.9083 18.6902 14.9091 18.6911C14.91 18.6919 14.9102 18.693 14.9102 18.693L19.0909 22.7827C19.5349 23.2157 20.4648 23.2157 20.9088 22.7827L25.0887 18.6937C25.0887 18.6937 25.0897 18.6919 25.0905 18.6911C25.0905 18.6911 25.0924 18.6901 25.0933 18.6892L37.9505 6.11142C37.5028 5.90941 37.0091 5.78906 36.4841 5.78906Z" fill="white"/>
<path d="M0.373906 7.70953C0.142187 8.16641 0 8.67357 0 9.21682V29.7832C0 30.3265 0.142031 30.8336 0.373828 31.2905L12.4272 19.5004L0.373906 7.70953Z" fill="white"/>
<path d="M39.6264 7.70935L27.5732 19.5004L39.6264 31.2906C39.8582 30.8338 40.0004 30.3266 40.0004 29.7832V9.21679C40.0004 8.67338 39.8582 8.16623 39.6264 7.70935Z" fill="white"/>
</g>
<defs>
<clipPath id="clip0_428_549">
<rect width="40" height="39" fill="white"/>
</clipPath>
</defs>
</svg>
