<svg width="41" height="41" viewBox="0 0 41 41" fill="none" xmlns="http://www.w3.org/2000/svg">
<g clip-path="url(#clip0_428_545)">
<path d="M29.3679 13.6419C29.1839 13.1432 28.8903 12.6919 28.5089 12.3214C28.1384 11.9399 27.6873 11.6464 27.1884 11.4623C26.7837 11.3052 26.1758 11.1181 25.0561 11.0671C23.8448 11.0119 23.4817 11 20.4153 11C17.3486 11 16.9854 11.0116 15.7745 11.0668C14.6548 11.1181 14.0466 11.3052 13.6422 11.4623C13.1432 11.6464 12.6919 11.9399 12.3217 12.3214C11.9402 12.6919 11.6467 13.1429 11.4623 13.6419C11.3052 14.0466 11.1181 14.6548 11.0671 15.7745C11.0119 16.9854 11 17.3486 11 20.4153C11 23.4817 11.0119 23.8448 11.0671 25.0561C11.1181 26.1758 11.3052 26.7837 11.4623 27.1884C11.6467 27.6873 11.9399 28.1384 12.3214 28.5089C12.6919 28.8903 13.1429 29.1839 13.6419 29.3679C14.0466 29.5254 14.6548 29.7125 15.7745 29.7634C16.9854 29.8187 17.3483 29.8303 20.415 29.8303C23.482 29.8303 23.8452 29.8187 25.0558 29.7634C26.1755 29.7125 26.7837 29.5254 27.1884 29.3679C28.1899 28.9816 28.9816 28.1899 29.3679 27.1884C29.5251 26.7837 29.7122 26.1758 29.7634 25.0561C29.8187 23.8448 29.8303 23.4817 29.8303 20.4153C29.8303 17.3486 29.8187 16.9854 29.7634 15.7745C29.7125 14.6548 29.5254 14.0466 29.3679 13.6419ZM20.4153 26.3122C17.1581 26.3122 14.5178 23.6721 14.5178 20.415C14.5178 17.1578 17.1581 14.5178 20.4153 14.5178C23.6721 14.5178 26.3125 17.1578 26.3125 20.415C26.3125 23.6721 23.6721 26.3122 20.4153 26.3122ZM26.5457 15.6628C25.7845 15.6628 25.1675 15.0457 25.1675 14.2846C25.1675 13.5235 25.7845 12.9064 26.5457 12.9064C27.3068 12.9064 27.9238 13.5235 27.9238 14.2846C27.9235 15.0457 27.3068 15.6628 26.5457 15.6628Z" fill="white"/>
<path d="M20.4151 0C9.14189 0 0 9.14189 0 20.4151C0 31.6884 9.14189 40.8303 20.4151 40.8303C31.6884 40.8303 40.8303 31.6884 40.8303 20.4151C40.8303 9.14189 31.6884 0 20.4151 0ZM32.0672 25.2482C32.0105 26.4961 31.812 27.3481 31.5223 28.0939C30.9133 29.6685 29.6685 30.9133 28.0939 31.5223C27.3484 31.812 26.4961 32.0102 25.2485 32.0672C23.9984 32.1242 23.5991 32.1379 20.4154 32.1379C17.2315 32.1379 16.8325 32.1242 15.5821 32.0672C14.3345 32.0102 13.4822 31.812 12.7367 31.5223C11.9542 31.228 11.2458 30.7666 10.6602 30.1701C10.064 29.5847 9.60261 28.8761 9.30824 28.0939C9.01853 27.3484 8.8201 26.4961 8.7634 25.2485C8.70577 23.9981 8.69238 23.5988 8.69238 20.4151C8.69238 17.2315 8.70577 16.8321 8.76309 15.5821C8.81979 14.3341 9.01791 13.4822 9.30761 12.7364C9.60199 11.9542 10.0636 11.2455 10.6602 10.6602C11.2455 10.0636 11.9542 9.6023 12.7364 9.30792C13.4822 9.01822 14.3341 8.8201 15.5821 8.76309C16.8321 8.70609 17.2315 8.69238 20.4151 8.69238C23.5988 8.69238 23.9981 8.70609 25.2482 8.7634C26.4961 8.8201 27.3481 9.01822 28.0939 9.30761C28.8761 9.60199 29.5847 10.0636 30.1704 10.6602C30.7666 11.2458 31.2283 11.9542 31.5223 12.7364C31.8124 13.4822 32.0105 14.3341 32.0675 15.5821C32.1245 16.8321 32.1379 17.2315 32.1379 20.4151C32.1379 23.5988 32.1245 23.9981 32.0672 25.2482Z" fill="white"/>
<path d="M24.323 20.4152C24.323 22.5733 22.5735 24.3227 20.4154 24.3227C18.2573 24.3227 16.5078 22.5733 16.5078 20.4152C16.5078 18.257 18.2573 16.5076 20.4154 16.5076C22.5735 16.5076 24.323 18.257 24.323 20.4152Z" fill="white"/>
</g>
<defs>
<clipPath id="clip0_428_545">
<rect width="40.8303" height="40.8303" fill="white"/>
</clipPath>
</defs>
</svg>
