<svg width="42" height="42" viewBox="0 0 42 42" fill="none" xmlns="http://www.w3.org/2000/svg">
<g clip-path="url(#clip0_428_516)">
<path d="M36.2727 0H5.72727C2.56419 0 0 2.56419 0 5.72727V36.2727C0 39.4358 2.56419 42 5.72727 42H36.2727C39.4358 42 42 39.4358 42 36.2727V5.72727C42 2.56419 39.4358 0 36.2727 0Z" fill="#434343"/>
<path d="M15.1298 11.4545C15.1298 12.1625 14.9199 12.8546 14.5265 13.4432C14.1332 14.0319 13.5742 14.4907 12.9201 14.7616C12.266 15.0325 11.5463 15.1034 10.8519 14.9653C10.1576 14.8272 9.51974 14.4863 9.01913 13.9857C8.51852 13.4851 8.1776 12.8472 8.03948 12.1529C7.90137 11.4585 7.97225 10.7388 8.24318 10.0847C8.51411 9.43064 8.97291 8.87159 9.56156 8.47826C10.1502 8.08494 10.8423 7.875 11.5503 7.875C12.4996 7.875 13.4101 8.25213 14.0814 8.92342C14.7527 9.59472 15.1298 10.5052 15.1298 11.4545Z" fill="white"/>
<path d="M14.3184 17.4204V33.2349C14.319 33.3515 14.2966 33.4672 14.2524 33.5751C14.2081 33.6831 14.143 33.7813 14.0608 33.864C13.9785 33.9467 13.8807 34.0124 13.7729 34.0571C13.6652 34.1019 13.5497 34.125 13.433 34.125H9.66019C9.54353 34.1253 9.42795 34.1026 9.3201 34.0581C9.21226 34.0136 9.11427 33.9482 9.03177 33.8657C8.94928 33.7832 8.8839 33.6852 8.8394 33.5774C8.7949 33.4695 8.77215 33.3539 8.77246 33.2373V17.4204C8.77246 17.185 8.86599 16.9592 9.03247 16.7927C9.19896 16.6262 9.42475 16.5327 9.66019 16.5327H13.433C13.6681 16.5333 13.8932 16.6272 14.0592 16.7936C14.2252 16.96 14.3184 17.1854 14.3184 17.4204Z" fill="white"/>
<path d="M34.0398 25.6534V33.3089C34.0401 33.4162 34.0192 33.5224 33.9783 33.6216C33.9374 33.7208 33.8773 33.8109 33.8014 33.8867C33.7256 33.9625 33.6355 34.0227 33.5363 34.0636C33.4372 34.1045 33.3309 34.1254 33.2236 34.125H29.1668C29.0596 34.1254 28.9533 34.1045 28.8541 34.0636C28.755 34.0227 28.6649 33.9625 28.589 33.8867C28.5132 33.8109 28.4531 33.7208 28.4122 33.6216C28.3713 33.5224 28.3504 33.4162 28.3507 33.3089V25.8897C28.3507 24.7824 28.6752 21.0406 25.456 21.0406C22.9623 21.0406 22.454 23.6012 22.3537 24.7514V33.3089C22.3538 33.5233 22.2694 33.7291 22.1189 33.8818C21.9685 34.0345 21.7639 34.1219 21.5495 34.125H17.6311C17.5241 34.125 17.4181 34.1039 17.3192 34.0629C17.2203 34.0218 17.1305 33.9617 17.0549 33.8859C16.9793 33.81 16.9194 33.72 16.8786 33.621C16.8379 33.522 16.8171 33.416 16.8174 33.3089V17.3513C16.8171 17.2442 16.8379 17.1381 16.8786 17.0391C16.9194 16.9401 16.9793 16.8502 17.0549 16.7743C17.1305 16.6985 17.2203 16.6384 17.3192 16.5973C17.4181 16.5563 17.5241 16.5351 17.6311 16.5352H21.5495C21.766 16.5352 21.9736 16.6211 22.1266 16.7742C22.2797 16.9272 22.3657 17.1348 22.3657 17.3513V18.7306C23.2916 17.3417 24.6637 16.2703 27.5918 16.2703C34.078 16.2703 34.0398 22.3269 34.0398 25.6534Z" fill="white"/>
</g>
<defs>
<clipPath id="clip0_428_516">
<rect width="42" height="42" fill="white"/>
</clipPath>
</defs>
</svg>
