<svg width="46" height="47" viewBox="0 0 46 47" fill="none" xmlns="http://www.w3.org/2000/svg">
<path d="M23 0C13.4895 0 5.75 7.96258 5.75 17.7523C5.75 31.6623 21.3785 46.0247 22.0436 46.6279C22.3177 46.8766 22.6588 47 23 47C23.3412 47 23.6823 46.8766 23.9564 46.6299C24.6215 46.0248 40.25 31.6623 40.25 17.7523C40.25 7.96258 32.5105 0 23 0ZM23 27.4167C17.7157 27.4167 13.4167 23.0241 13.4167 17.625C13.4167 12.2259 17.7157 7.83333 23 7.83333C28.2843 7.83333 32.5833 12.2259 32.5833 17.625C32.5833 23.0241 28.2843 27.4167 23 27.4167Z" fill="white"/>
</svg>
