<svg width="40" height="39" viewBox="0 0 40 39" fill="none" xmlns="http://www.w3.org/2000/svg">
<g clip-path="url(#clip0_428_524)">
<path d="M30.4102 25.7993C29.1034 24.5414 27.472 24.5414 26.1735 25.7993C25.183 26.7569 24.1925 27.7146 23.2186 28.6884C22.9522 28.9562 22.7275 29.013 22.4029 28.8345C21.762 28.4937 21.0794 28.2177 20.4635 27.8444C17.5918 26.0833 15.1863 23.8191 13.0555 21.2708C11.9984 20.0048 11.0578 18.6495 10.4002 17.1238C10.267 16.8154 10.292 16.6125 10.55 16.3609C11.5406 15.4276 12.5061 14.47 13.48 13.5124C14.8367 12.1814 14.8367 10.6233 13.4716 9.28419C12.6975 8.52133 11.9234 7.7747 11.1493 7.01184C10.3503 6.23275 9.55954 5.44554 8.75214 4.67457C7.44533 3.43289 5.81391 3.43289 4.51542 4.68268C3.51659 5.64032 2.55937 6.6223 1.54389 7.5637C0.603318 8.43206 0.128872 9.4952 0.0289881 10.7369C-0.129161 12.7576 0.37858 14.6648 1.09441 16.5232C2.55937 20.37 4.7901 23.7866 7.49528 26.9192C11.1493 31.1555 15.5109 34.5073 20.6133 36.9257C22.9106 38.0132 25.2912 38.8491 27.8798 38.987C29.6611 39.0844 31.2093 38.6462 32.4495 37.2909C33.2985 36.3657 34.2557 35.5217 35.1547 34.6371C36.4865 33.3224 36.4948 31.7318 35.1713 30.4333C33.5898 28.8832 32 27.3412 30.4102 25.7993Z" fill="white"/>
<path d="M28.8207 19.3312L31.8921 18.8199C31.4093 16.0687 30.0775 13.5773 28.0549 11.5971C25.9157 9.51139 23.2105 8.19667 20.2307 7.79089L19.7979 10.8018C22.1035 11.1183 24.201 12.1327 25.8574 13.7477C27.4223 15.2734 28.4461 17.2049 28.8207 19.3312Z" fill="white"/>
<path d="M33.6237 6.31388C30.0779 2.85667 25.5914 0.673589 20.6389 0L20.2061 3.01086C24.4844 3.59518 28.3632 5.4861 31.4263 8.4645C34.3312 11.2968 36.2374 14.8758 36.9282 18.8118L39.9996 18.3005C39.1922 13.7396 36.9865 9.60068 33.6237 6.31388Z" fill="white"/>
</g>
<defs>
<clipPath id="clip0_428_524">
<rect width="40" height="39" fill="white"/>
</clipPath>
</defs>
</svg>
